<svg xmlns="http://www.w3.org/2000/svg" xmlns:xlink="http://www.w3.org/1999/xlink" width="207.422" height="88.895" viewBox="0 0 207.422 88.895">
  <defs>
    <clipPath id="clip-path">
      <rect id="Rectangle_8" data-name="Rectangle 8" width="207.422" height="88.895" transform="translate(0 0)" fill="none"/>
    </clipPath>
  </defs>
  <g id="Groupe_78" data-name="Groupe 78" transform="translate(51)">
    <g id="Groupe_77" data-name="Groupe 77" transform="translate(-51 0)" clip-path="url(#clip-path)">
      <path id="Tracé_2" data-name="Tracé 2" d="M193.277,0H107.552s-5.3,8.745-6.637,11.042C99.51,8.745,94.214,0,94.214,0H8.745A8.374,8.374,0,0,0,0,8.361V80.872a8.479,8.479,0,0,0,8.617,8.745H85.6S99.319,66.957,100.85,64.341c1.6,2.681,15.319,25.277,15.319,25.277h76.917a8.479,8.479,0,0,0,8.617-8.745V8.3A8.343,8.343,0,0,0,193.277,0m-.128,86.809H117.766s-13.023-21.574-16.85-27.895c-3.83,6.32-16.853,27.895-16.853,27.895H8.617a5.768,5.768,0,0,1-5.808-5.936V8.361A5.613,5.613,0,0,1,8.745,2.809H92.617s5.49,9,8.3,13.66c2.809-4.659,8.233-13.66,8.233-13.66h84.128a5.577,5.577,0,0,1,5.617,5.617l.063,72.446a5.768,5.768,0,0,1-5.808,5.936" transform="translate(-1.094 -0.362)" fill="#fff"/>
      <path id="Tracé_3" data-name="Tracé 3" d="M15.439,74.189H29.417V52.358h6.511v21.83H49.908V15.465H35.929V37.039H29.355V15.465H18.311c-2.934,0-2.934,2.49-2.871,2.49Z" transform="translate(-10.661 -9.954)" fill="#fff"/>
      <path id="Tracé_4" data-name="Tracé 4" d="M142.246,58.23H129.289V52.421H140.65V37.037H129.289V31.613h12.319V15.463h-26.3V74.252h26.936Z" transform="translate(-72.616 -9.953)" fill="#fff"/>
      <path id="Tracé_5" data-name="Tracé 5" d="M119.784,47.317,139,15.467h-18.7L110.4,31.935l-9.895-16.468h-18.7l19.275,31.85L82.7,77.7H15.294V90.531A2.792,2.792,0,0,0,18.1,93.466H91.827l18.574-30.7,18.575,30.7h73.659a2.792,2.792,0,0,0,2.809-2.935l.065-12.831H138.168Z" transform="translate(-10.58 -9.955)" fill="#fff"/>
      <rect id="Rectangle_7" data-name="Rectangle 7" width="16.022" height="58.724" transform="translate(130.586 5.51)" fill="#fff"/>
      <path id="Tracé_6" data-name="Tracé 6" d="M402.013,46.8c3.511,1.468,22.914,7.914,22.914,7.914s2.171.64,2.171,2.106a1.879,1.879,0,0,1-1.915,1.915H399.141V74.253h44.3v-28.4s.191-1.406-1.981-2.3L416.566,35s-1.468-.512-1.468-1.787a1.749,1.749,0,0,1,1.978-1.724H443.44v-13.4a2.62,2.62,0,0,0-2.618-2.618H402.269a3.149,3.149,0,0,0-3.127,3.383V42.974s-.64,2.362,2.872,3.83" transform="translate(-248.638 -9.953)" fill="#fff"/>
      <path id="Tracé_7" data-name="Tracé 7" d="M540.436,21.165a1.058,1.058,0,0,0,1.019-1.084A1.075,1.075,0,0,0,540.243,19h-1.85v3.83h.766v-1.6h.191a.689.689,0,0,1,.575.191,8.217,8.217,0,0,1,.575.766l.319.64h.894l-.447-.768c-.382-.7-.51-.766-.829-.894m-1.277-.51V19.634h.7c.51,0,.766.191.766.512,0,.253-.191.509-.7.509Z" transform="translate(-335.039 -12.144)" fill="#fff"/>
      <path id="Tracé_8" data-name="Tracé 8" d="M536.755,14.622a3.607,3.607,0,1,0,3.574,3.64,3.584,3.584,0,0,0-3.574-3.64m0,6.511a2.9,2.9,0,1,1,2.872-2.872,2.86,2.86,0,0,1-2.872,2.872" transform="translate(-331.806 -9.431)" fill="#fff"/>
    </g>
  </g>
</svg>
