<svg id="Groupe_76" data-name="Groupe 76" xmlns="http://www.w3.org/2000/svg" xmlns:xlink="http://www.w3.org/1999/xlink" width="120.584" height="120.584" viewBox="0 0 120.584 120.584">
  <defs>
    <clipPath id="clip-path">
      <rect id="Rectangle_6" data-name="Rectangle 6" width="120.584" height="120.584" fill="none"/>
    </clipPath>
  </defs>
  <g id="Groupe_75" data-name="Groupe 75" transform="translate(0 0)" clip-path="url(#clip-path)">
    <path id="Tracé_1" data-name="Tracé 1" d="M60.293,120.584c-.6,0-1.2-.011-1.792-.028l12.32-33.863H87.781a8.314,8.314,0,0,0,7.262-5.082L108.409,44.89c2.188-6.01-1.257-10.93-7.652-10.93H77.232L46.3,118.949A60.308,60.308,0,0,1,44.015,2.225L13.269,86.693l12.78,0,16.324-44.81h9.6L35.65,86.7l12.775,0L63.636,44.89c2.19-6.01-1.254-10.93-7.645-10.93H45.25L57.583.063c.9-.039,1.8-.063,2.71-.063a60.292,60.292,0,1,1,0,120.584m36.48-78.732h-9.6L73.727,78.742h9.6Z" transform="translate(0 -0.001)" fill="#fff"/>
  </g>
</svg>
